<?xml version="1.0" encoding="utf-8"?>
<!-- Generator: Adobe Illustrator 24.3.0, SVG Export Plug-In . SVG Version: 6.00 Build 0)  -->
<svg version="1.1" id="Layer_1" xmlns="http://www.w3.org/2000/svg" xmlns:xlink="http://www.w3.org/1999/xlink" x="0px" y="0px"
	 viewBox="0 0 800 600" style="enable-background:new 0 0 800 600;" xml:space="preserve">
<style type="text/css">
	.st0{fill:#88898B;}
	.st1{fill:#F8AC5E;}
	.st2{fill:#EB5F27;}
</style>
<g id="layer1" transform="translate(-277.38783,-490.72224)">
	<g>
		<g id="g4" transform="matrix(0.5944293,0,0,0.5944293,150.10176,248.53127)">
			<g id="g6">
				<g id="g8">
					<path id="path10" class="st0" d="M1352.6,1287.9l32.9-92.4h37l32.3,92.4h-35.7l-3-11.6h-25.1l-2.8,11.6H1352.6z M1396.7,1254.4
						h13.8l-2.8-10.5c-1.4-5.3-2.3-9.4-2.8-12.3c-0.5-2.8-0.8-5.5-0.9-8.1h-0.6c-0.1,2.5-0.5,5.2-0.9,8.1c-0.5,2.9-1.5,7-2.8,12.3
						L1396.7,1254.4z M1312.8,1287.9v-92.4h33.8v92.4H1312.8z M1225.7,1277.6l10.6-25.9c4.8,3.3,9,5.8,12.7,7.3
						c3.7,1.5,7.2,2.3,10.4,2.3c2.3,0,4.1-0.4,5.4-1.3c1.3-0.9,2-2,2-3.5c0-2.6-3.3-4.5-9.8-5.9c-2.1-0.5-3.8-0.8-4.9-1.1
						c-6.9-1.7-12.2-4.7-15.8-9c-3.7-4.3-5.5-9.6-5.5-16c0-9.9,3.6-18,10.7-24.2c7.1-6.2,16.4-9.4,28-9.4c5.3,0,10.5,0.7,15.7,2.1
						c5.1,1.4,10.3,3.5,15.5,6.3l-10.1,24.2c-3.2-2.3-6.4-4.2-9.6-5.4c-3.2-1.2-6.3-1.9-9.4-1.9c-2.3,0-4.1,0.4-5.4,1.2
						c-1.3,0.8-1.9,1.9-1.9,3.3c0,2.6,4.6,4.9,13.8,6.9c1.5,0.3,2.6,0.6,3.4,0.8c6.4,1.4,11.4,4.4,15,8.8c3.7,4.4,5.5,9.8,5.5,16
						c0,10.2-3.7,18.6-11.1,25.1c-7.4,6.5-17,9.7-28.8,9.7c-6.1,0-12.1-0.9-18.2-2.6C1237.9,1283.6,1231.8,1281.1,1225.7,1277.6z
						 M1156.3,1287.9v-92.4h61.8v25.1h-29.2v8.9h26.5v23.7h-26.5v9.7h30v25.1H1156.3z M1045.3,1287.9v-92.4h32.6l28.7,48.3
						c-0.4-2.1-0.6-4.5-0.8-7.1c-0.2-2.6-0.2-6-0.2-10.2v-31h32v92.4h-32.8l-28.4-48c0.3,2.1,0.6,4.3,0.8,6.7c0.2,2.4,0.3,5,0.3,8
						v33.3H1045.3z M1030.4,1241.9c0,6.8-1.2,13.1-3.6,18.9c-2.4,5.8-5.9,11.1-10.5,15.6c-4.6,4.5-10,8-16,10.3
						c-6,2.4-12.5,3.6-19.3,3.6c-6.9,0-13.4-1.2-19.4-3.6c-6-2.4-11.4-5.9-16.1-10.5c-4.6-4.5-8.1-9.6-10.4-15.4
						c-2.4-5.8-3.5-12.1-3.5-19c0-6.8,1.2-13.2,3.5-19.1c2.3-5.8,5.8-11,10.4-15.5c4.6-4.5,10-8,16-10.4c6-2.4,12.5-3.6,19.4-3.6
						c6.9,0,13.4,1.2,19.4,3.6c6,2.4,11.4,5.8,16,10.4c4.5,4.5,8,9.7,10.4,15.5C1029.2,1228.8,1030.4,1235.1,1030.4,1241.9z
						 M981,1259.4c4.7,0,8.4-1.6,11.3-4.8c2.8-3.2,4.3-7.4,4.3-12.7c0-5.3-1.4-9.5-4.3-12.8c-2.8-3.2-6.6-4.8-11.3-4.8
						c-4.7,0-8.4,1.6-11.3,4.9c-2.9,3.2-4.3,7.5-4.3,12.7c0,5.3,1.4,9.5,4.3,12.7C972.5,1257.8,976.3,1259.4,981,1259.4z
						 M832.1,1287.9v-92.4H859c8.5,0,15.8,0.5,21.9,1.4c6,0.9,11,2.4,14.7,4.4c8,4.2,14.1,9.8,18.4,16.7c4.3,6.9,6.4,14.8,6.4,23.7
						c0,8.9-2.1,16.7-6.4,23.6c-4.2,6.9-10.4,12.5-18.4,16.7c-3.9,2-8.9,3.5-14.9,4.4c-6,0.9-14.1,1.4-24.2,1.4H832.1z
						 M865.1,1259.7c7.5,0,13-1.5,16.4-4.4c3.4-2.9,5.2-7.4,5.2-13.5c0-6-1.7-10.5-5-13.4c-3.3-3-8.4-4.4-15.2-4.4h-1.4V1259.7z
						 M720.8,1287.9v-92.4h32.6l28.7,48.3c-0.4-2.1-0.6-4.5-0.8-7.1c-0.2-2.6-0.2-6-0.2-10.2v-31h32v92.4h-32.8l-28.4-48
						c0.3,2.1,0.6,4.3,0.8,6.7c0.2,2.4,0.3,5,0.3,8v33.3H720.8z M669,1287.9v-92.4h33.8v92.4H669z M535.2,1281.4l10.6-25.9
						c4.8,3.3,9,5.8,12.7,7.3c3.7,1.5,7.2,2.3,10.4,2.3c2.3,0,4.1-0.4,5.4-1.3c1.3-0.9,2-2,2-3.5c0-2.6-3.3-4.5-9.8-5.9
						c-2.1-0.5-3.7-0.8-4.9-1.1c-6.9-1.7-12.2-4.7-15.8-9c-3.7-4.3-5.5-9.6-5.5-16c0-9.9,3.6-18,10.7-24.2c7.1-6.2,16.4-9.4,28-9.4
						c5.3,0,10.5,0.7,15.7,2.1c5.1,1.4,10.3,3.5,15.5,6.3l-10.1,24.2c-3.2-2.3-6.4-4.2-9.6-5.4c-3.2-1.2-6.3-1.9-9.4-1.9
						c-2.3,0-4.1,0.4-5.4,1.2c-1.3,0.8-1.9,1.9-1.9,3.3c0,2.6,4.6,4.9,13.8,6.9c1.5,0.3,2.6,0.6,3.4,0.8c6.4,1.4,11.4,4.4,15,8.8
						c3.7,4.4,5.5,9.8,5.5,16c0,10.2-3.7,18.6-11.1,25.1c-7.4,6.5-17,9.7-28.8,9.7c-6.1,0-12.1-0.9-18.2-2.6
						C547.3,1287.4,541.2,1284.8,535.2,1281.4z M528.3,1243.3c0,6.8-1.2,13.1-3.6,18.9c-2.4,5.8-5.9,11.1-10.5,15.6
						c-4.6,4.5-10,7.9-16,10.3c-6,2.4-12.5,3.6-19.3,3.6c-6.9,0-13.4-1.2-19.4-3.6c-6-2.4-11.4-5.9-16.1-10.5
						c-4.6-4.5-8.1-9.6-10.4-15.4c-2.4-5.8-3.5-12.2-3.5-19c0-6.9,1.2-13.2,3.5-19.1c2.3-5.8,5.8-11,10.4-15.5c4.6-4.5,10-8,16-10.4
						c6-2.4,12.5-3.6,19.4-3.6c6.9,0,13.4,1.2,19.4,3.6c6,2.4,11.4,5.8,16.1,10.4c4.5,4.5,8,9.7,10.4,15.5
						C527.1,1230.1,528.3,1236.5,528.3,1243.3z M478.9,1260.7c4.7,0,8.4-1.6,11.3-4.8c2.8-3.2,4.3-7.4,4.3-12.7
						c0-5.3-1.4-9.5-4.3-12.8c-2.8-3.2-6.6-4.8-11.3-4.8c-4.7,0-8.4,1.6-11.3,4.9c-2.9,3.2-4.3,7.5-4.3,12.7c0,5.3,1.4,9.5,4.3,12.7
						C470.5,1259.1,474.2,1260.7,478.9,1260.7z M374,1222.8v15.4h5.2c3.1,0,5.6-0.7,7.3-2c1.7-1.3,2.5-3.2,2.5-5.7
						c0-2.4-0.9-4.3-2.6-5.7c-1.7-1.4-4.1-2-7.2-2H374z M340.6,1289.5v-92.4h39.7c14,0,24.2,2.7,30.6,8.1c6.5,5.4,9.7,13.9,9.7,25.6
						c0,10.9-2.9,18.9-8.7,23.9c-5.8,5-15,7.5-27.7,7.5h-10.4v27.3H340.6z"/>
					<path id="path12" class="st1" d="M733.8,984.1h99.5l-26.9,18.3h-60.9l-9.8-14.9C735.1,986.4,734.4,985.2,733.8,984.1z
						 M1220.1,1000.5l-110.4,0.6c-20.8,55.7-75.7,103.5-114.7,128.3c-2,0.3-3.7,0.5-5.1,0.7c-2.1,0.1-4.3,0.1-6.4,0.1
						c-3,0-6-0.1-9-0.2c-1.1-0.2-2.2-0.3-3.6-0.5c-23.6-14.4-55.8-36.3-73.1-61l19.5-8.5c15.8,20.9,34.9,36.3,54.2,55.4l0.4-75.9
						l17.9-6.9l0.4,84.5c37.9-31.7,73.5-74.6,96.7-116l-8.7-0.6l41.1-18.1l111.7-0.3C1227.1,989.6,1224.9,993.4,1220.1,1000.5z
						 M989.7,885.1l-18.1,11.4V867l18.1,0V885.1z M861.4,964.8c-11.4-30.5-19-61.2-20.9-96.4h-17.4c1.6,38.5,8,72,20.6,107.9
						L861.4,964.8z M989.1,672.2l0.3-102.9c32.3,25.2,66.1,60.9,90.1,102.9h21.8c-27.7-63.7-83.9-103.2-108.2-113.5
						c-1.4-0.2-3-0.4-4.7-0.5c-1.6,0-3.3-0.1-4.9-0.1c-3.7-0.1-7.4,0-11.1,0.1c-0.8,0.1-1.6,0.2-2.4,0.3
						c-31.8,16.1-85.1,58-106.8,114.8h23.6c20-43.6,52.9-74.8,84.9-101.6l-0.3,100.5H989.1z"/>
					<path id="path14" class="st2" d="M681.6,874.2l17-1.4c7.1,65.5,30.4,111.9,67.7,159.2l-13.4,11.2
						C709.3,992.2,683.1,932.7,681.6,874.2z M840.8,1092l-19,9.6c46.6,29.1,102.8,45.7,161.8,45.7c132.6-2.3,246.3-89,286.6-209.2
						l-22,7c-38.6,107-144.4,185.1-264.6,185.1C933.3,1130.1,881.6,1114.5,840.8,1092z M467.2,748.3l9.7-7.6L972,723.2
						c14.8,0.7,32.5,12.2,37.7,22.5L467.2,748.3z M430.4,776.7l590.9-17.9c10.9,0,28.4,11,38.6,21.9l-640.4,4L430.4,776.7z
						 M383.2,814.1l683.2-18.9c18.3-0.7,38.7,13.2,42,20.7L373,822.5L383.2,814.1z M1211.2,673.1
						c-51.7-67.7-137.3-115.1-227.6-115.1c-91.2-1.6-182.1,45.8-231.4,116l-21.2,0.5c54.6-80.1,148.5-133.9,252.6-133.9
						c102.7,0,194.7,52.7,249.3,132.1L1211.2,673.1z M1364.5,843.4c6.2,0,10.2,5.1,10.2,11.6s-4,10.2-10.2,10.2
						c-6.2,0-11.7-3.6-11.7-10.2S1358.4,843.4,1364.5,843.4z M526.3,700.6l706.7-19c82.7,18.8,80.7,82.9,40.3,135.3l77.1-0.8
						c38.4-1.6,59.3,34.2,96.2,69.6c-105.6,11.6-201.6,37.8-310.8,72.8c-152.9,50.2-294.7,112-449,177.6
						c80.1-88.1,151.1-133.9,222.4-182.7c54.5-33.5,121.7-70.9,172-98h35.7c-42,21-102.8,57.4-158,88.9
						c-58.5,33.3-135.2,84.9-187.7,137.2c134.6-55.5,249-103.9,381.8-145.9c74.4-22.9,160.9-50.1,252.2-64.9
						c-8.6-22.1-27.6-36.4-60.3-36.4h-111.1c23.6-25.8,43.6-63.9,43.2-92.6c-0.2-18-26.5-36.2-46.3-36.1l-712.7,2.9L526.3,700.6z
						 M327.9,860.1l8.7-7.3l753.7-21c16,0,27.7-3,37.1-0.1c13.1,5.1,22.6,11.7,30.6,21.1L327.9,860.1z"/>
				</g>
			</g>
		</g>
	</g>
</g>
</svg>
