<?xml version="1.0" encoding="UTF-8"?>
<!DOCTYPE svg PUBLIC "-//W3C//DTD SVG 1.1//EN" "http://www.w3.org/Graphics/SVG/1.1/DTD/svg11.dtd">
<!-- Creator: CorelDRAW 2019 -->
<svg xmlns="http://www.w3.org/2000/svg" xml:space="preserve" width="500px" height="500px" version="1.1" style="shape-rendering:geometricPrecision; text-rendering:geometricPrecision; image-rendering:optimizeQuality; fill-rule:evenodd; clip-rule:evenodd"
viewBox="0 0 500 500"
 xmlns:xlink="http://www.w3.org/1999/xlink"
 xmlns:xodm="http://www.corel.com/coreldraw/odm/2003">
 <defs>
  <style type="text/css">
   <![CDATA[
    .fil2 {fill:#FEF4D2}
    .fil6 {fill:#CDC5AA}
    .fil7 {fill:#593D22}
    .fil1 {fill:#99937F}
    .fil9 {fill:#77593C}
    .fil0 {fill:#8B8887}
    .fil8 {fill:#403329}
    .fil3 {fill:#373737;fill-opacity:0.058824}
    .fil5 {fill:#373737;fill-opacity:0.200000}
    .fil4 {fill:#373737;fill-opacity:0.200000}
    .fil10 {fill:#B3AC95}
   ]]>
  </style>
 </defs>
 <g id="Publicdomainvectors.org">
  <metadata id="CorelCorpID_0Corel-Layer"/>
  <path class="fil0" d="M213.95 438.09c81.93,0 148.75,-5.93 148.75,-13.21 0,-7.29 -66.82,-13.22 -148.75,-13.22 -81.92,0 -148.75,5.93 -148.75,13.22 0,7.28 66.83,13.21 148.75,13.21z"/>
  <path class="fil1" d="M214.87 331.79c86.26,-9.76 157.35,-7.42 158.79,5.24 1.43,12.66 -67.34,30.84 -153.6,40.61 -86.27,9.76 -157.36,7.42 -158.8,-5.24 -1.43,-12.66 67.34,-30.84 153.61,-40.61z"/>
  <path class="fil2" d="M210.69 310.57c108.32,-12.26 197.59,-9.31 199.4,6.58 1.79,15.9 -84.56,38.73 -192.88,50.99 -108.32,12.26 -197.59,9.31 -199.39,-6.58 -1.8,-15.9 84.55,-38.73 192.87,-50.99z"/>
  <path class="fil3" d="M212.23 332.14c57.29,-6.48 104.51,-4.92 105.46,3.48 0.95,8.41 -44.72,20.49 -102.01,26.97 -57.3,6.49 -104.51,4.93 -105.46,-3.48 -0.96,-8.41 44.72,-20.48 102.01,-26.97z"/>
  <path class="fil2" d="M114.18 160.44c-15.24,-15.74 -29.48,-20.62 -39.37,-18.77 -4.63,0.87 -8.16,3.32 -10.05,6.76 -2,3.65 -2.32,8.58 -0.41,14.2 4.88,14.35 23,31.7 61.67,44.9l-4.9 14.41c-43.88,-14.98 -65,-36.29 -71.17,-54.42 -3.37,-9.93 -2.53,-19.13 1.44,-26.38 4.09,-7.46 11.33,-12.68 20.61,-14.42 14.32,-2.68 33.82,3.21 53.11,23.14l-10.93 10.58z"/>
  <path class="fil4" d="M114.18 160.44c-6.43,-6.64 -12.68,-11.35 -18.51,-14.43 -10.39,-5.78 -3.37,-16.61 4.05,-14.89 8.19,3.79 16.81,9.88 25.39,18.74l-10.93 10.58zm-12.63 36.93l0 0c7.03,3.56 15.15,6.98 24.47,10.16l-4.9 14.41c-8.5,-2.9 -16.15,-6.04 -23,-9.35 -9.21,-5.84 -3.77,-19.49 3.43,-15.22l0 0z"/>
  <path class="fil2" d="M331.69 174.13c-12.17,44.27 -37.77,80.01 -68.59,100.94 -9.84,6.68 -20.5,9.18 -32.29,7.57 -15.88,-2.18 -32.06,-5.47 -48.33,-9.95 -16.27,-4.47 -31.86,-9.9 -46.63,-16.15 -10.95,-4.63 -18.85,-12.24 -23.89,-23.01 -15.79,-33.73 -19.54,-77.53 -7.37,-121.81l227.1 62.41z"/>
  <path class="fil5" d="M331.69 174.13c-12.17,44.27 -37.77,80.01 -68.59,100.94 -9.84,6.68 -20.5,9.18 -32.29,7.57 -14.5,-1.99 -29.23,-4.91 -44.07,-8.8 67.57,-2.81 116.44,-91.53 44.43,-116.28l100.52 16.57z"/>
  <path class="fil6" d="M220.99 132.54c62.72,17.23 112.28,35.85 110.7,41.59 -1.57,5.73 -53.69,-3.59 -116.4,-20.83 -62.72,-17.23 -112.28,-35.85 -110.7,-41.58 1.57,-5.74 53.69,3.59 116.4,20.82z"/>
  <path class="fil7" d="M331.69 174.13c-1.56,5.67 -52.69,-3.42 -114.59,-20.33l1.98 0c25.96,0 48.28,-12.22 62.26,-34.1 15.05,-23.55 37.77,-46.18 61.44,-59.31 5.04,-2.8 11.17,-3.3 15.9,-1.29 4.73,2 7.29,6.17 6.62,10.82 -0.66,4.65 -4.42,9.01 -9.77,11.31 -2.67,1.15 -4.55,3.33 -4.88,5.65 -0.33,2.33 0.95,4.41 3.31,5.41 2.37,1 5.43,0.75 7.95,-0.65 22.54,-12.5 49.19,-17.25 73.16,-13.04 23.97,4.22 42.94,16.99 52.08,35.06 2.59,5.12 0.57,11.53 -5.01,15.93 -5.58,4.4 -13.49,5.81 -19.64,3.5 -10.71,-4.01 -24.69,-0.39 -32.62,8.45 -2.49,2.77 -3.54,6.1 -2.88,9.14 0.66,3.04 2.95,5.5 6.3,6.76 12.53,4.69 21.12,13.9 23.57,25.28 2.45,11.37 -1.46,23.82 -10.75,34.17 -8.92,9.93 -23.85,15.05 -37.11,12.72 -13.26,-2.34 -21.9,-11.6 -21.46,-23.02 0.7,-18.24 -15.49,-31.99 -37.8,-32.09l-18.06 -0.37z"/>
  <path class="fil8" d="M331.69 174.13c-1,3.65 -22.53,1.19 -54.25,-5.54 16.71,1.47 30.38,-2.23 45.88,-6.89 34.09,-10.24 66.09,-8.03 85.22,20.62 17.22,25.11 -12.16,47.22 -20.99,24.27 0.7,-18.24 -15.49,-31.99 -37.8,-32.09l-18.06 -0.37z"/>
  <path class="fil9" d="M414.75 80.7c22.4,-0.04 42.44,9.33 42.44,14.69 0,5.36 -20.04,-3.92 -42.44,-3.88 -22.4,0.05 -38.68,9.4 -38.68,4.03 0,-5.36 16.28,-14.8 38.68,-14.84zm20.41 89.15l0 0c6.02,0 13.84,9.84 13.84,21.01 0,11.17 -7.82,19.44 -13.84,19.44 -6.03,0 1.52,-8.27 1.52,-19.44 0,-11.17 -7.55,-21.01 -1.52,-21.01z"/>
  <path class="fil10" d="M261.5 326.13c57.29,-6.48 104.51,-4.92 105.46,3.49 0.95,8.4 -44.72,20.48 -102.01,26.96 -57.3,6.49 -104.51,4.93 -105.46,-3.48 -0.96,-8.41 44.72,-20.48 102.01,-26.97z"/>
 </g>
</svg>
